HIERARCHY
ROOT Hips
{
  OFFSET -53.8512 85.3383 30.5809
  CHANNELS 6 Xposition Yposition Zposition Zrotation Xrotation Yrotation
  JOINT ToSpine
  {
    OFFSET -2.69724 7.43032 -0.144315
    CHANNELS 3 Zrotation Xrotation Yrotation
    JOINT Spine
    {
      OFFSET -0.0310711 10.7595 1.96963
      CHANNELS 3 Zrotation Xrotation Yrotation
      JOINT Spine1
      {
        OFFSET 19.9056 3.91189 0.764692
        CHANNELS 3 Zrotation Xrotation Yrotation
        JOINT Neck
        {
          OFFSET 25.9749 7.03908 -0.130764
          CHANNELS 3 Zrotation Xrotation Yrotation
          JOINT Head
          {
            OFFSET 9.52751 0.295786 -0.907742
            CHANNELS 3 Zrotation Xrotation Yrotation
            End Site
            {
              OFFSET 16.4037 0.713936 2.7358
            }
          }
        }
        JOINT LeftShoulder
        {
          OFFSET 17.7449 4.33886 11.7777
          CHANNELS 3 Zrotation Xrotation Yrotation
          JOINT LeftArm
          {
            OFFSET 0.911315 1.27913 9.80584
            CHANNELS 3 Zrotation Xrotation Yrotation
            JOINT LeftForeArm
            {
              OFFSET 28.6126 1.18197 -3.53199
              CHANNELS 3 Zrotation Xrotation Yrotation
              JOINT LeftHand
              {
                OFFSET 27.5088 0.0218783 0.327423
                CHANNELS 3 Zrotation Xrotation Yrotation
                End Site
                {
                  OFFSET 18.6038 -0.000155887 0.382096
                }
              }
            }
          }
        }
        JOINT RightShoulder
        {
          OFFSET 17.1009 2.89543 -12.2328
          CHANNELS 3 Zrotation Xrotation Yrotation
          JOINT RightArm
          {
            OFFSET 1.4228 0.178766 -10.211
            CHANNELS 3 Zrotation Xrotation Yrotation
            JOINT RightForeArm
            {
              OFFSET 28.733 1.87905 2.64907
              CHANNELS 3 Zrotation Xrotation Yrotation
              JOINT RightHand
              {
                OFFSET 27.4588 0.290562 -0.101845
                CHANNELS 3 Zrotation Xrotation Yrotation
                End Site
                {
                  OFFSET 17.8396 -0.255518 -0.000602873
                }
              }
            }
          }
        }
      }
    }
  }
  JOINT LeftUpLeg
  {
    OFFSET -5.61296 -2.22332 -10.2353
    CHANNELS 3 Zrotation Xrotation Yrotation
    JOINT LeftLeg
    {
      OFFSET 2.56703 -44.7417 -7.93097
      CHANNELS 3 Zrotation Xrotation Yrotation
      JOINT LeftFoot
      {
        OFFSET 3.16933 -46.5642 -3.96578
        CHANNELS 3 Zrotation Xrotation Yrotation
        JOINT LeftToeBase
        {
          OFFSET 0.346054 -6.02161 12.8035
          CHANNELS 3 Zrotation Xrotation Yrotation
          End Site
          {
            OFFSET 0.134235 -1.35082 5.13018
          }
        }
      }
    }
  }
  JOINT RightUpLeg
  {
    OFFSET -5.7928 -1.72406 10.6446
    CHANNELS 3 Zrotation Xrotation Yrotation
    JOINT RightLeg
    {
      OFFSET -2.57161 -44.7178 -7.85259
      CHANNELS 3 Zrotation Xrotation Yrotation
      JOINT RightFoot
      {
        OFFSET -3.10148 -46.5936 -4.03391
        CHANNELS 3 Zrotation Xrotation Yrotation
        JOINT RightToeBase
        {
          OFFSET -0.0828122 -6.13587 12.8035
          CHANNELS 3 Zrotation Xrotation Yrotation
          End Site
          {
            OFFSET -0.131328 -1.35082 5.13018
          }
        }
      }
    }
  }
}
MOTION
Frames:	13
Frame Time:	0.0333333
-10.6597 79.0237 22.9516 84.4149 22.2428 28.8294 -70.1915 0 88.8779 147.182 65.5157 -47.5504 11.9359 21.3267 10.9586 -160.783 13.9207 172.434 -133.562 44.5891 156.653 2.48055 -0.0054427 -25.6062 -85.4871 57.798 -82.9096 1.04814 -1.336 -34.8259 17.8443 -0.804353 -3.36276 0.443828 -1.95247 27.0106 -91.1515 -45.3809 88.764 9.95938 -6.06159 51.3024 9.67374 0.120795 1.16024 0.0696036 7.0794 90.6052 -151.535 82.9833 156.008 6.28122 7.47875 -0.738906 -7.85209 -31.3097 6.56607 -57.1698 -2.95604 79.8752 8.14374 65.4484 10.5512 -9.9405 -12.7583 1.18492 13.5698 -32.6359 -16.6752 
-1.47991 79.3114 19.1269 82.195 19.6368 27.8469 -70.1915 0 88.8779 148.934 66.804 -51.1996 9.33402 22.8691 9.43217 -161.721 13.7886 171.405 -133.95 44.2174 155.745 2.37262 -0.943942 -25.887 -71.0706 57.6099 -93.9165 1.35113 -1.66749 -23.6146 14.9968 -0.899385 -5.0248 0.274482 -0.773294 24.5317 -88.9893 -45.873 100.699 13.3836 -7.22267 57.3929 7.77658 0.204932 2.91093 3.75788 7.4093 93.3936 -43.6661 86.016 48.7786 6.41651 9.50298 -0.731039 -7.89247 -31.484 6.54682 -63.645 -5.28636 79.2061 6.6736 59.7881 16.9454 -10.4796 -14.4922 1.15506 13.8496 -33.8229 -15.9055 
9.4978 79.7896 14.2159 77.6473 19.424 28.4256 -70.1915 0 88.8779 144.401 70.4068 -47.7615 7.6341 23.9744 8.2135 -159.839 14.5574 169.895 -133.585 45.2836 156.387 1.93696 -3.88762 -25.6092 -74.5004 54.5194 -91.0139 2.24903 9.82968 -17.5737 16.5694 -1.17278 -6.22381 0.26317 -0.72862 20.6347 -86.834 -47.1322 105.117 15.8671 -6.15505 66.9782 9.99754 0.490231 5.60933 6.12051 5.68173 95.8123 -32.2991 85.1568 38.4394 7.34728 10.404 -0.911025 -7.43105 -29.2594 5.56081 -73.1322 -4.62622 79.7914 4.41075 48.4173 19.8726 -9.68121 -17.4905 1.1195 12.8476 -29.2178 -18.3777 
20.2229 79.7567 9.16139 74.3597 21.6147 30.1663 -70.1915 0 88.8779 139.109 71.861 -42.0542 7.82264 24.388 5.14003 -157.592 15.2866 167.557 -133.772 46.5322 157.013 1.78807 -4.64134 -24.7466 -77.0133 48.9499 -92.2689 0.545435 11.165 -15.7097 16.0894 -1.13652 -6.20863 0.354319 -1.83375 20.5708 -83.4027 -46.7786 104.855 19.0129 -4.91925 75.5219 8.9379 0.544798 7.11997 3.65703 4.29905 99.0954 -60.6669 87.1265 69.5004 6.0663 9.3958 -0.662553 -6.23605 -23.8637 6.79408 -79.7588 -2.03282 81.2497 3.46024 45.3431 14.0569 -7.41705 -12.8317 1.16003 11.0896 -22.1643 -17.4762 
28.8837 80.7683 4.16459 72.6756 24.3487 29.3257 -70.1915 0 88.8779 137.13 70.7064 -43.0494 9.18207 24.0955 2.92723 -157.724 15.5304 169.176 -136.07 48.3203 160.682 2.05674 -3.08708 -25.724 -81.0055 40.8603 -96.7864 -0.5741 10.5194 -14.5555 15.1352 -0.955241 -5.37375 0.343351 -1.61368 21.3427 -79.913 -46.5304 101.818 21.3137 -5.36377 76.1002 9.15652 0.548969 6.98382 -6.08133 2.59225 104.552 -33.9594 85.3648 40.5799 7.48296 10.9629 -0.935402 -7.71388 -30.6479 6.36221 -77.9286 -3.72233 82.0816 3.90372 56.6614 3.33227 -4.43432 -3.88459 0.834159 -8.65 24.6223 1.72129 
37.3406 81.5369 -0.597878 69.6902 26.1018 28.9888 -70.1915 0 88.8779 135.582 69.8182 -45.3705 9.3224 23.5718 2.31415 -160.539 15.4943 170.419 -138.76 48.949 161.529 2.14766 -2.29535 -25.427 -85.6547 33.6477 -103.613 -0.753773 8.55186 -14.3536 15.6326 -0.95238 -5.13005 0.375833 -1.82458 22.5594 -77.9994 -47.2378 96.597 22.1627 -7.78709 70.1588 8.92542 0.483998 6.29642 -14.5341 0.141965 106.346 -20.1791 82.8273 26.5302 12.0526 20.2781 -2.2073 -18.4381 -55.2457 -5.93633 -67.6688 -2.25582 87.2437 15.2355 78.0579 -9.03262 -6.15509 -1.72874 0.947607 -0.449751 15.5797 -8.97314 
45.039 82.5673 -4.96728 64.8444 32.3021 28.5542 -70.1915 0 88.8779 130.496 67.6398 -46.8247 10.6301 21.1606 2.55321 -165.147 15.9401 171.969 -140.792 50.5672 165.331 2.04834 -2.6356 -24.6532 -86.5703 24.5166 -114.102 0.201263 2.27263 -17.1719 17.0506 -0.890411 -4.16025 0.383702 -1.64916 25.182 -76.7708 -47.1545 92.589 21.6205 -12.8129 57.4864 9.22718 0.412872 5.1193 -18.9801 -6.66875 106.348 -27.6959 83.8209 30.4624 10.1443 13.7044 -1.54662 -14.9533 -50.3442 -1.71812 -53.9909 -3.74133 88.6717 155.483 80.2998 -152.973 -6.83009 -0.90787 1.00995 6.05296 2.64749 -17.5992 
53.062 84.2272 -10.1334 57.0917 38.8516 31.8598 -70.1915 0 88.8779 126.594 65.4502 -46.5826 9.57462 18.7234 3.10372 -165.424 17.9456 172.935 -141.367 53.6807 169.111 1.60408 -4.47869 -20.699 -91.5351 21.3799 -123.191 2.38221 2.42579 -19.8685 17.6034 -0.843013 -3.67664 0.45897 -2.06851 26.9328 -73.5512 -49.1708 88.9582 20.3422 -19.2989 43.628 9.81977 0.295704 3.31017 -24.5124 -13.2163 103.29 -23.5269 81.9955 21.426 7.17767 10.8919 -0.870833 -13.5767 -47.4888 -0.570537 -36.5638 -5.31931 90.2316 168.258 67.8407 -170.314 -7.03541 -0.808192 1.03234 10.1437 -11.8888 -22.4297 
62.8926 85.962 -17.2481 51.4791 41.4605 35.978 -70.1915 0 88.8779 124.82 64.6177 -46.2474 6.70994 17.5117 4.87987 -166.461 17.9131 172.643 -142.606 53.4394 166.979 1.58642 -4.07501 -19.6471 -97.1935 19.4085 -130.077 5.29849 5.98395 -27.7304 18.3657 -1.02519 -4.55709 0.55328 -2.72953 27.0633 -73.4525 -52.8178 79.553 22.255 -25.2428 39.3142 7.79036 0.240534 3.47276 -35.176 -13.4653 99.217 -13.3657 75.831 6.68858 8.64586 10.8873 -1.18376 -15.5161 -50.563 -3.35246 -20.111 -2.3558 94.0853 170.002 64.4926 -175.484 -6.82864 -2.83447 1.03282 11.3076 -18.3841 -22.7535 
73.5884 88.0636 -26.4902 45.7 43.673 42.7954 -70.1915 0 88.8779 119.561 63.6569 -39.6217 4.65962 15.1276 6.70769 -165.781 17.6093 172.917 -143.749 53.4356 167.773 1.61692 -3.21418 -18.9138 -101.022 18.3526 -131.349 9.91662 8.80441 -41.8302 17.4955 -1.17589 -5.82576 0.513185 -2.56357 26.1208 -72.7768 -57.2783 70.493 20.6898 -23.8405 38.2933 6.60296 0.225328 3.94449 -48.3978 -11.4812 91.8125 -7.43994 65.5931 -4.0951 9.66348 7.05377 -1.35699 -12.636 -45.3883 0.30454 -8.14416 -0.497809 94.5091 167.71 70.2694 -170.997 -6.76125 -5.77685 1.06339 11.6088 -19.8495 -23.0129 
84.052 90.8356 -37.5258 46.5188 43.2987 45.242 -70.1915 0 88.8779 118.23 63.1346 -34.496 4.28219 14.6472 6.53326 -164.61 16.6613 172.475 -143.64 52.1422 166.54 1.45374 -2.76983 -15.863 -102.307 21.705 -125.224 16.781 9.75952 -57.1759 20.5717 -1.56117 -6.77791 0.383268 -1.76181 23.8442 -74.5349 -62.0681 62.5487 15.8799 -17.8449 36.9194 5.73582 0.24719 5.16422 -64.4834 -7.18295 85.488 -3.87408 50.0151 -9.58437 5.43911 4.75128 -0.650747 -7.1353 -27.7077 2.51073 -3.51464 3.28277 93.4386 138.274 84.5341 -136.378 -7.42293 -6.78085 1.11778 11.1891 -21.0273 -19.4826 
93.9957 93.3421 -48.2176 48.9121 42.2776 45.2427 -70.1915 0 88.8779 116.749 63.0067 -31.657 4.37144 14.0821 8.71571 -163.893 15.4282 172.204 -142.38 49.8646 162.899 1.63152 -1.0308 -16.8937 -98.6548 23.8553 -116.734 15.8736 5.03607 -70.8834 22.488 -1.14695 -4.00376 0.216895 -0.270368 23.933 -73.7507 -62.3495 59.7089 12.0062 -12.2698 37.2189 4.45268 0.197533 5.53288 -77.7155 -6.4006 76.7123 -2.0457 38.8749 -6.90658 -1.81051 8.14648 0.813593 1.83836 15.7662 4.87646 -3.65026 5.46182 90.2981 9.23084 72.8819 -4.0439 -6.9029 -6.84618 1.08579 10.8799 -21.6177 -16.9831 
102.239 94.4158 -57.7896 50.4278 42.3621 44.8784 -70.1915 0 88.8779 116.618 62.7021 -30.3757 6.83955 13.7316 10.0362 -164.086 14.6826 172.388 -141.941 48.7583 162.049 1.90633 0.305016 -18.9561 -91.2756 29.1604 -111.238 13.342 3.17856 -75.4507 18.9995 -0.900077 -3.61494 0.143091 0.319444 24.9249 -72.5384 -60.8632 62.992 8.8322 -8.05496 37.0578 4.15129 0.181219 5.50747 -79.3259 -6.42178 77.3504 -2.64109 49.9275 -1.04089 1.24579 13.2606 0.537642 -4.14721 -2.85031 16.297 -6.33796 2.58547 81.6079 3.84905 55.7073 4.86093 -5.75195 -3.71417 0.946803 9.38745 -18.9746 -12.5375 
